<?xml version="1.0" standalone="yes"?><svg xmlns="http://www.w3.org/2000/svg" version="1.1" width="222" height="222" shape-rendering="crispEdges"><rect x="0" y="0" width="222" height="222" fill="#fff"/><path fill="#000" d="M24 24h6v6H24V24M30 24h6v6H30V24M36 24h6v6H36V24M42 24h6v6H42V24M48 24h6v6H48V24M54 24h6v6H54V24M60 24h6v6H60V24M72 24h6v6H72V24M90 24h6v6H90V24M102 24h6v6H102V24M108 24h6v6H108V24M114 24h6v6H114V24M126 24h6v6H126V24M138 24h6v6H138V24M156 24h6v6H156V24M162 24h6v6H162V24M168 24h6v6H168V24M174 24h6v6H174V24M180 24h6v6H180V24M186 24h6v6H186V24M192 24h6v6H192V24M24 30h6v6H24V30M60 30h6v6H60V30M72 30h6v6H72V30M84 30h6v6H84V30M90 30h6v6H90V30M96 30h6v6H96V30M102 30h6v6H102V30M120 30h6v6H120V30M126 30h6v6H126V30M156 30h6v6H156V30M192 30h6v6H192V30M24 36h6v6H24V36M36 36h6v6H36V36M42 36h6v6H42V36M48 36h6v6H48V36M60 36h6v6H60V36M78 36h6v6H78V36M120 36h6v6H120V36M132 36h6v6H132V36M138 36h6v6H138V36M156 36h6v6H156V36M168 36h6v6H168V36M174 36h6v6H174V36M180 36h6v6H180V36M192 36h6v6H192V36M24 42h6v6H24V42M36 42h6v6H36V42M42 42h6v6H42V42M48 42h6v6H48V42M60 42h6v6H60V42M72 42h6v6H72V42M84 42h6v6H84V42M108 42h6v6H108V42M114 42h6v6H114V42M126 42h6v6H126V42M132 42h6v6H132V42M156 42h6v6H156V42M168 42h6v6H168V42M174 42h6v6H174V42M180 42h6v6H180V42M192 42h6v6H192V42M24 48h6v6H24V48M36 48h6v6H36V48M42 48h6v6H42V48M48 48h6v6H48V48M60 48h6v6H60V48M78 48h6v6H78V48M108 48h6v6H108V48M120 48h6v6H120V48M126 48h6v6H126V48M132 48h6v6H132V48M138 48h6v6H138V48M156 48h6v6H156V48M168 48h6v6H168V48M174 48h6v6H174V48M180 48h6v6H180V48M192 48h6v6H192V48M24 54h6v6H24V54M60 54h6v6H60V54M78 54h6v6H78V54M84 54h6v6H84V54M90 54h6v6H90V54M102 54h6v6H102V54M114 54h6v6H114V54M120 54h6v6H120V54M126 54h6v6H126V54M138 54h6v6H138V54M144 54h6v6H144V54M156 54h6v6H156V54M192 54h6v6H192V54M24 60h6v6H24V60M30 60h6v6H30V60M36 60h6v6H36V60M42 60h6v6H42V60M48 60h6v6H48V60M54 60h6v6H54V60M60 60h6v6H60V60M72 60h6v6H72V60M84 60h6v6H84V60M96 60h6v6H96V60M108 60h6v6H108V60M120 60h6v6H120V60M132 60h6v6H132V60M144 60h6v6H144V60M156 60h6v6H156V60M162 60h6v6H162V60M168 60h6v6H168V60M174 60h6v6H174V60M180 60h6v6H180V60M186 60h6v6H186V60M192 60h6v6H192V60M72 66h6v6H72V66M78 66h6v6H78V66M84 66h6v6H84V66M90 66h6v6H90V66M96 66h6v6H96V66M114 66h6v6H114V66M120 66h6v6H120V66M126 66h6v6H126V66M132 66h6v6H132V66M138 66h6v6H138V66M144 66h6v6H144V66M24 72h6v6H24V72M36 72h6v6H36V72M42 72h6v6H42V72M54 72h6v6H54V72M60 72h6v6H60V72M66 72h6v6H66V72M84 72h6v6H84V72M96 72h6v6H96V72M102 72h6v6H102V72M114 72h6v6H114V72M120 72h6v6H120V72M126 72h6v6H126V72M132 72h6v6H132V72M156 72h6v6H156V72M174 72h6v6H174V72M186 72h6v6H186V72M192 72h6v6H192V72M24 78h6v6H24V78M30 78h6v6H30V78M36 78h6v6H36V78M72 78h6v6H72V78M78 78h6v6H78V78M102 78h6v6H102V78M108 78h6v6H108V78M114 78h6v6H114V78M132 78h6v6H132V78M144 78h6v6H144V78M156 78h6v6H156V78M162 78h6v6H162V78M168 78h6v6H168V78M174 78h6v6H174V78M186 78h6v6H186V78M192 78h6v6H192V78M36 84h6v6H36V84M54 84h6v6H54V84M60 84h6v6H60V84M66 84h6v6H66V84M78 84h6v6H78V84M84 84h6v6H84V84M96 84h6v6H96V84M102 84h6v6H102V84M132 84h6v6H132V84M144 84h6v6H144V84M150 84h6v6H150V84M174 84h6v6H174V84M186 84h6v6H186V84M36 90h6v6H36V90M42 90h6v6H42V90M72 90h6v6H72V90M78 90h6v6H78V90M96 90h6v6H96V90M114 90h6v6H114V90M120 90h6v6H120V90M138 90h6v6H138V90M150 90h6v6H150V90M156 90h6v6H156V90M162 90h6v6H162V90M186 90h6v6H186V90M192 90h6v6H192V90M48 96h6v6H48V96M60 96h6v6H60V96M66 96h6v6H66V96M84 96h6v6H84V96M108 96h6v6H108V96M114 96h6v6H114V96M120 96h6v6H120V96M138 96h6v6H138V96M174 96h6v6H174V96M186 96h6v6H186V96M24 102h6v6H24V102M30 102h6v6H30V102M36 102h6v6H36V102M42 102h6v6H42V102M78 102h6v6H78V102M108 102h6v6H108V102M114 102h6v6H114V102M120 102h6v6H120V102M126 102h6v6H126V102M138 102h6v6H138V102M150 102h6v6H150V102M156 102h6v6H156V102M174 102h6v6H174V102M180 102h6v6H180V102M192 102h6v6H192V102M24 108h6v6H24V108M36 108h6v6H36V108M60 108h6v6H60V108M66 108h6v6H66V108M72 108h6v6H72V108M78 108h6v6H78V108M90 108h6v6H90V108M102 108h6v6H102V108M120 108h6v6H120V108M126 108h6v6H126V108M132 108h6v6H132V108M138 108h6v6H138V108M144 108h6v6H144V108M150 108h6v6H150V108M156 108h6v6H156V108M162 108h6v6H162V108M174 108h6v6H174V108M186 108h6v6H186V108M192 108h6v6H192V108M24 114h6v6H24V114M36 114h6v6H36V114M42 114h6v6H42V114M48 114h6v6H48V114M54 114h6v6H54V114M72 114h6v6H72V114M78 114h6v6H78V114M84 114h6v6H84V114M90 114h6v6H90V114M108 114h6v6H108V114M114 114h6v6H114V114M132 114h6v6H132V114M144 114h6v6H144V114M156 114h6v6H156V114M162 114h6v6H162V114M168 114h6v6H168V114M174 114h6v6H174V114M186 114h6v6H186V114M30 120h6v6H30V120M42 120h6v6H42V120M48 120h6v6H48V120M54 120h6v6H54V120M60 120h6v6H60V120M78 120h6v6H78V120M96 120h6v6H96V120M108 120h6v6H108V120M120 120h6v6H120V120M132 120h6v6H132V120M138 120h6v6H138V120M144 120h6v6H144V120M150 120h6v6H150V120M168 120h6v6H168V120M174 120h6v6H174V120M180 120h6v6H180V120M186 120h6v6H186V120M30 126h6v6H30V126M42 126h6v6H42V126M48 126h6v6H48V126M54 126h6v6H54V126M66 126h6v6H66V126M96 126h6v6H96V126M108 126h6v6H108V126M126 126h6v6H126V126M132 126h6v6H132V126M138 126h6v6H138V126M144 126h6v6H144V126M186 126h6v6H186V126M24 132h6v6H24V132M54 132h6v6H54V132M60 132h6v6H60V132M72 132h6v6H72V132M78 132h6v6H78V132M84 132h6v6H84V132M96 132h6v6H96V132M102 132h6v6H102V132M108 132h6v6H108V132M114 132h6v6H114V132M132 132h6v6H132V132M144 132h6v6H144V132M150 132h6v6H150V132M156 132h6v6H156V132M186 132h6v6H186V132M42 138h6v6H42V138M48 138h6v6H48V138M72 138h6v6H72V138M90 138h6v6H90V138M96 138h6v6H96V138M102 138h6v6H102V138M108 138h6v6H108V138M114 138h6v6H114V138M126 138h6v6H126V138M132 138h6v6H132V138M162 138h6v6H162V138M168 138h6v6H168V138M174 138h6v6H174V138M180 138h6v6H180V138M186 138h6v6H186V138M30 144h6v6H30V144M36 144h6v6H36V144M42 144h6v6H42V144M48 144h6v6H48V144M54 144h6v6H54V144M60 144h6v6H60V144M78 144h6v6H78V144M96 144h6v6H96V144M102 144h6v6H102V144M108 144h6v6H108V144M114 144h6v6H114V144M132 144h6v6H132V144M138 144h6v6H138V144M144 144h6v6H144V144M150 144h6v6H150V144M156 144h6v6H156V144M162 144h6v6H162V144M168 144h6v6H168V144M174 144h6v6H174V144M180 144h6v6H180V144M192 144h6v6H192V144M72 150h6v6H72V150M78 150h6v6H78V150M84 150h6v6H84V150M90 150h6v6H90V150M96 150h6v6H96V150M114 150h6v6H114V150M120 150h6v6H120V150M138 150h6v6H138V150M144 150h6v6H144V150M168 150h6v6H168V150M180 150h6v6H180V150M192 150h6v6H192V150M24 156h6v6H24V156M30 156h6v6H30V156M36 156h6v6H36V156M42 156h6v6H42V156M48 156h6v6H48V156M54 156h6v6H54V156M60 156h6v6H60V156M72 156h6v6H72V156M78 156h6v6H78V156M90 156h6v6H90V156M96 156h6v6H96V156M108 156h6v6H108V156M126 156h6v6H126V156M138 156h6v6H138V156M144 156h6v6H144V156M156 156h6v6H156V156M168 156h6v6H168V156M24 162h6v6H24V162M60 162h6v6H60V162M72 162h6v6H72V162M84 162h6v6H84V162M96 162h6v6H96V162M102 162h6v6H102V162M108 162h6v6H108V162M132 162h6v6H132V162M144 162h6v6H144V162M168 162h6v6H168V162M24 168h6v6H24V168M36 168h6v6H36V168M42 168h6v6H42V168M48 168h6v6H48V168M60 168h6v6H60V168M114 168h6v6H114V168M126 168h6v6H126V168M144 168h6v6H144V168M150 168h6v6H150V168M156 168h6v6H156V168M162 168h6v6H162V168M168 168h6v6H168V168M180 168h6v6H180V168M186 168h6v6H186V168M24 174h6v6H24V174M36 174h6v6H36V174M42 174h6v6H42V174M48 174h6v6H48V174M60 174h6v6H60V174M72 174h6v6H72V174M90 174h6v6H90V174M102 174h6v6H102V174M114 174h6v6H114V174M120 174h6v6H120V174M126 174h6v6H126V174M132 174h6v6H132V174M144 174h6v6H144V174M150 174h6v6H150V174M162 174h6v6H162V174M174 174h6v6H174V174M180 174h6v6H180V174M192 174h6v6H192V174M24 180h6v6H24V180M36 180h6v6H36V180M42 180h6v6H42V180M48 180h6v6H48V180M60 180h6v6H60V180M72 180h6v6H72V180M90 180h6v6H90V180M108 180h6v6H108V180M120 180h6v6H120V180M126 180h6v6H126V180M132 180h6v6H132V180M138 180h6v6H138V180M150 180h6v6H150V180M156 180h6v6H156V180M162 180h6v6H162V180M174 180h6v6H174V180M180 180h6v6H180V180M192 180h6v6H192V180M24 186h6v6H24V186M60 186h6v6H60V186M84 186h6v6H84V186M90 186h6v6H90V186M102 186h6v6H102V186M138 186h6v6H138V186M168 186h6v6H168V186M174 186h6v6H174V186M186 186h6v6H186V186M24 192h6v6H24V192M30 192h6v6H30V192M36 192h6v6H36V192M42 192h6v6H42V192M48 192h6v6H48V192M54 192h6v6H54V192M60 192h6v6H60V192M72 192h6v6H72V192M78 192h6v6H78V192M84 192h6v6H84V192M96 192h6v6H96V192M102 192h6v6H102V192M120 192h6v6H120V192M132 192h6v6H132V192M138 192h6v6H138V192M144 192h6v6H144V192M150 192h6v6H150V192M156 192h6v6H156V192M180 192h6v6H180V192M186 192h6v6H186V192"/></svg>