<?xml version="1.0" standalone="yes"?><svg xmlns="http://www.w3.org/2000/svg" version="1.1" width="222" height="222" shape-rendering="crispEdges"><rect x="0" y="0" width="222" height="222" fill="#fff"/><path fill="#000" d="M24 24h6v6H24V24M30 24h6v6H30V24M36 24h6v6H36V24M42 24h6v6H42V24M48 24h6v6H48V24M54 24h6v6H54V24M60 24h6v6H60V24M84 24h6v6H84V24M96 24h6v6H96V24M102 24h6v6H102V24M108 24h6v6H108V24M114 24h6v6H114V24M126 24h6v6H126V24M138 24h6v6H138V24M144 24h6v6H144V24M156 24h6v6H156V24M162 24h6v6H162V24M168 24h6v6H168V24M174 24h6v6H174V24M180 24h6v6H180V24M186 24h6v6H186V24M192 24h6v6H192V24M24 30h6v6H24V30M60 30h6v6H60V30M78 30h6v6H78V30M90 30h6v6H90V30M96 30h6v6H96V30M102 30h6v6H102V30M108 30h6v6H108V30M114 30h6v6H114V30M120 30h6v6H120V30M126 30h6v6H126V30M132 30h6v6H132V30M156 30h6v6H156V30M192 30h6v6H192V30M24 36h6v6H24V36M36 36h6v6H36V36M42 36h6v6H42V36M48 36h6v6H48V36M60 36h6v6H60V36M72 36h6v6H72V36M84 36h6v6H84V36M96 36h6v6H96V36M102 36h6v6H102V36M114 36h6v6H114V36M132 36h6v6H132V36M138 36h6v6H138V36M144 36h6v6H144V36M156 36h6v6H156V36M168 36h6v6H168V36M174 36h6v6H174V36M180 36h6v6H180V36M192 36h6v6H192V36M24 42h6v6H24V42M36 42h6v6H36V42M42 42h6v6H42V42M48 42h6v6H48V42M60 42h6v6H60V42M72 42h6v6H72V42M78 42h6v6H78V42M90 42h6v6H90V42M96 42h6v6H96V42M108 42h6v6H108V42M114 42h6v6H114V42M138 42h6v6H138V42M156 42h6v6H156V42M168 42h6v6H168V42M174 42h6v6H174V42M180 42h6v6H180V42M192 42h6v6H192V42M24 48h6v6H24V48M36 48h6v6H36V48M42 48h6v6H42V48M48 48h6v6H48V48M60 48h6v6H60V48M72 48h6v6H72V48M90 48h6v6H90V48M96 48h6v6H96V48M114 48h6v6H114V48M120 48h6v6H120V48M126 48h6v6H126V48M144 48h6v6H144V48M156 48h6v6H156V48M168 48h6v6H168V48M174 48h6v6H174V48M180 48h6v6H180V48M192 48h6v6H192V48M24 54h6v6H24V54M60 54h6v6H60V54M72 54h6v6H72V54M90 54h6v6H90V54M132 54h6v6H132V54M156 54h6v6H156V54M192 54h6v6H192V54M24 60h6v6H24V60M30 60h6v6H30V60M36 60h6v6H36V60M42 60h6v6H42V60M48 60h6v6H48V60M54 60h6v6H54V60M60 60h6v6H60V60M72 60h6v6H72V60M84 60h6v6H84V60M96 60h6v6H96V60M108 60h6v6H108V60M120 60h6v6H120V60M132 60h6v6H132V60M144 60h6v6H144V60M156 60h6v6H156V60M162 60h6v6H162V60M168 60h6v6H168V60M174 60h6v6H174V60M180 60h6v6H180V60M186 60h6v6H186V60M192 60h6v6H192V60M72 66h6v6H72V66M78 66h6v6H78V66M84 66h6v6H84V66M96 66h6v6H96V66M108 66h6v6H108V66M120 66h6v6H120V66M132 66h6v6H132V66M138 66h6v6H138V66M24 72h6v6H24V72M36 72h6v6H36V72M42 72h6v6H42V72M48 72h6v6H48V72M54 72h6v6H54V72M60 72h6v6H60V72M90 72h6v6H90V72M96 72h6v6H96V72M138 72h6v6H138V72M144 72h6v6H144V72M156 72h6v6H156V72M162 72h6v6H162V72M168 72h6v6H168V72M174 72h6v6H174V72M180 72h6v6H180V72M30 78h6v6H30V78M36 78h6v6H36V78M48 78h6v6H48V78M66 78h6v6H66V78M72 78h6v6H72V78M78 78h6v6H78V78M84 78h6v6H84V78M90 78h6v6H90V78M96 78h6v6H96V78M102 78h6v6H102V78M108 78h6v6H108V78M114 78h6v6H114V78M132 78h6v6H132V78M138 78h6v6H138V78M144 78h6v6H144V78M150 78h6v6H150V78M156 78h6v6H156V78M162 78h6v6H162V78M168 78h6v6H168V78M174 78h6v6H174V78M186 78h6v6H186V78M42 84h6v6H42V84M60 84h6v6H60V84M66 84h6v6H66V84M90 84h6v6H90V84M102 84h6v6H102V84M108 84h6v6H108V84M114 84h6v6H114V84M126 84h6v6H126V84M132 84h6v6H132V84M168 84h6v6H168V84M174 84h6v6H174V84M36 90h6v6H36V90M54 90h6v6H54V90M72 90h6v6H72V90M90 90h6v6H90V90M102 90h6v6H102V90M114 90h6v6H114V90M132 90h6v6H132V90M138 90h6v6H138V90M24 96h6v6H24V96M60 96h6v6H60V96M66 96h6v6H66V96M78 96h6v6H78V96M84 96h6v6H84V96M108 96h6v6H108V96M120 96h6v6H120V96M126 96h6v6H126V96M138 96h6v6H138V96M168 96h6v6H168V96M174 96h6v6H174V96M180 96h6v6H180V96M186 96h6v6H186V96M30 102h6v6H30V102M54 102h6v6H54V102M66 102h6v6H66V102M72 102h6v6H72V102M84 102h6v6H84V102M90 102h6v6H90V102M96 102h6v6H96V102M138 102h6v6H138V102M144 102h6v6H144V102M150 102h6v6H150V102M156 102h6v6H156V102M162 102h6v6H162V102M168 102h6v6H168V102M174 102h6v6H174V102M192 102h6v6H192V102M42 108h6v6H42V108M48 108h6v6H48V108M54 108h6v6H54V108M60 108h6v6H60V108M72 108h6v6H72V108M78 108h6v6H78V108M90 108h6v6H90V108M114 108h6v6H114V108M144 108h6v6H144V108M156 108h6v6H156V108M162 108h6v6H162V108M174 108h6v6H174V108M24 114h6v6H24V114M30 114h6v6H30V114M36 114h6v6H36V114M48 114h6v6H48V114M54 114h6v6H54V114M108 114h6v6H108V114M114 114h6v6H114V114M120 114h6v6H120V114M138 114h6v6H138V114M168 114h6v6H168V114M174 114h6v6H174V114M24 120h6v6H24V120M30 120h6v6H30V120M48 120h6v6H48V120M54 120h6v6H54V120M60 120h6v6H60V120M84 120h6v6H84V120M96 120h6v6H96V120M114 120h6v6H114V120M120 120h6v6H120V120M144 120h6v6H144V120M174 120h6v6H174V120M180 120h6v6H180V120M24 126h6v6H24V126M30 126h6v6H30V126M36 126h6v6H36V126M54 126h6v6H54V126M66 126h6v6H66V126M84 126h6v6H84V126M96 126h6v6H96V126M102 126h6v6H102V126M108 126h6v6H108V126M138 126h6v6H138V126M150 126h6v6H150V126M156 126h6v6H156V126M162 126h6v6H162V126M168 126h6v6H168V126M192 126h6v6H192V126M24 132h6v6H24V132M60 132h6v6H60V132M66 132h6v6H66V132M78 132h6v6H78V132M90 132h6v6H90V132M96 132h6v6H96V132M102 132h6v6H102V132M108 132h6v6H108V132M114 132h6v6H114V132M120 132h6v6H120V132M126 132h6v6H126V132M150 132h6v6H150V132M156 132h6v6H156V132M186 132h6v6H186V132M24 138h6v6H24V138M48 138h6v6H48V138M54 138h6v6H54V138M66 138h6v6H66V138M78 138h6v6H78V138M96 138h6v6H96V138M102 138h6v6H102V138M132 138h6v6H132V138M144 138h6v6H144V138M168 138h6v6H168V138M174 138h6v6H174V138M24 144h6v6H24V144M42 144h6v6H42V144M48 144h6v6H48V144M60 144h6v6H60V144M72 144h6v6H72V144M78 144h6v6H78V144M108 144h6v6H108V144M114 144h6v6H114V144M120 144h6v6H120V144M144 144h6v6H144V144M150 144h6v6H150V144M156 144h6v6H156V144M162 144h6v6H162V144M168 144h6v6H168V144M180 144h6v6H180V144M186 144h6v6H186V144M72 150h6v6H72V150M78 150h6v6H78V150M84 150h6v6H84V150M120 150h6v6H120V150M126 150h6v6H126V150M138 150h6v6H138V150M144 150h6v6H144V150M168 150h6v6H168V150M174 150h6v6H174V150M192 150h6v6H192V150M24 156h6v6H24V156M30 156h6v6H30V156M36 156h6v6H36V156M42 156h6v6H42V156M48 156h6v6H48V156M54 156h6v6H54V156M60 156h6v6H60V156M84 156h6v6H84V156M114 156h6v6H114V156M126 156h6v6H126V156M132 156h6v6H132V156M144 156h6v6H144V156M156 156h6v6H156V156M168 156h6v6H168V156M174 156h6v6H174V156M186 156h6v6H186V156M24 162h6v6H24V162M60 162h6v6H60V162M72 162h6v6H72V162M78 162h6v6H78V162M84 162h6v6H84V162M90 162h6v6H90V162M96 162h6v6H96V162M108 162h6v6H108V162M132 162h6v6H132V162M138 162h6v6H138V162M144 162h6v6H144V162M168 162h6v6H168V162M174 162h6v6H174V162M186 162h6v6H186V162M192 162h6v6H192V162M24 168h6v6H24V168M36 168h6v6H36V168M42 168h6v6H42V168M48 168h6v6H48V168M60 168h6v6H60V168M72 168h6v6H72V168M84 168h6v6H84V168M96 168h6v6H96V168M144 168h6v6H144V168M150 168h6v6H150V168M156 168h6v6H156V168M162 168h6v6H162V168M168 168h6v6H168V168M180 168h6v6H180V168M186 168h6v6H186V168M24 174h6v6H24V174M36 174h6v6H36V174M42 174h6v6H42V174M48 174h6v6H48V174M60 174h6v6H60V174M72 174h6v6H72V174M78 174h6v6H78V174M90 174h6v6H90V174M96 174h6v6H96V174M108 174h6v6H108V174M114 174h6v6H114V174M120 174h6v6H120V174M132 174h6v6H132V174M144 174h6v6H144V174M162 174h6v6H162V174M168 174h6v6H168V174M174 174h6v6H174V174M186 174h6v6H186V174M192 174h6v6H192V174M24 180h6v6H24V180M36 180h6v6H36V180M42 180h6v6H42V180M48 180h6v6H48V180M60 180h6v6H60V180M72 180h6v6H72V180M78 180h6v6H78V180M90 180h6v6H90V180M96 180h6v6H96V180M114 180h6v6H114V180M126 180h6v6H126V180M132 180h6v6H132V180M144 180h6v6H144V180M150 180h6v6H150V180M156 180h6v6H156V180M162 180h6v6H162V180M168 180h6v6H168V180M174 180h6v6H174V180M180 180h6v6H180V180M186 180h6v6H186V180M24 186h6v6H24V186M60 186h6v6H60V186M78 186h6v6H78V186M96 186h6v6H96V186M132 186h6v6H132V186M138 186h6v6H138V186M162 186h6v6H162V186M168 186h6v6H168V186M174 186h6v6H174V186M186 186h6v6H186V186M24 192h6v6H24V192M30 192h6v6H30V192M36 192h6v6H36V192M42 192h6v6H42V192M48 192h6v6H48V192M54 192h6v6H54V192M60 192h6v6H60V192M72 192h6v6H72V192M78 192h6v6H78V192M102 192h6v6H102V192M108 192h6v6H108V192M114 192h6v6H114V192M138 192h6v6H138V192M150 192h6v6H150V192M168 192h6v6H168V192"/></svg>