<?xml version="1.0" standalone="yes"?><svg xmlns="http://www.w3.org/2000/svg" version="1.1" width="222" height="222" shape-rendering="crispEdges"><rect x="0" y="0" width="222" height="222" fill="#fff"/><path fill="#000" d="M24 24h6v6H24V24M30 24h6v6H30V24M36 24h6v6H36V24M42 24h6v6H42V24M48 24h6v6H48V24M54 24h6v6H54V24M60 24h6v6H60V24M72 24h6v6H72V24M84 24h6v6H84V24M126 24h6v6H126V24M132 24h6v6H132V24M138 24h6v6H138V24M156 24h6v6H156V24M162 24h6v6H162V24M168 24h6v6H168V24M174 24h6v6H174V24M180 24h6v6H180V24M186 24h6v6H186V24M192 24h6v6H192V24M24 30h6v6H24V30M60 30h6v6H60V30M78 30h6v6H78V30M120 30h6v6H120V30M138 30h6v6H138V30M144 30h6v6H144V30M156 30h6v6H156V30M192 30h6v6H192V30M24 36h6v6H24V36M36 36h6v6H36V36M42 36h6v6H42V36M48 36h6v6H48V36M60 36h6v6H60V36M78 36h6v6H78V36M90 36h6v6H90V36M102 36h6v6H102V36M114 36h6v6H114V36M120 36h6v6H120V36M126 36h6v6H126V36M138 36h6v6H138V36M144 36h6v6H144V36M156 36h6v6H156V36M168 36h6v6H168V36M174 36h6v6H174V36M180 36h6v6H180V36M192 36h6v6H192V36M24 42h6v6H24V42M36 42h6v6H36V42M42 42h6v6H42V42M48 42h6v6H48V42M60 42h6v6H60V42M72 42h6v6H72V42M108 42h6v6H108V42M114 42h6v6H114V42M120 42h6v6H120V42M132 42h6v6H132V42M138 42h6v6H138V42M156 42h6v6H156V42M168 42h6v6H168V42M174 42h6v6H174V42M180 42h6v6H180V42M192 42h6v6H192V42M24 48h6v6H24V48M36 48h6v6H36V48M42 48h6v6H42V48M48 48h6v6H48V48M60 48h6v6H60V48M72 48h6v6H72V48M78 48h6v6H78V48M96 48h6v6H96V48M102 48h6v6H102V48M108 48h6v6H108V48M120 48h6v6H120V48M126 48h6v6H126V48M132 48h6v6H132V48M156 48h6v6H156V48M168 48h6v6H168V48M174 48h6v6H174V48M180 48h6v6H180V48M192 48h6v6H192V48M24 54h6v6H24V54M60 54h6v6H60V54M72 54h6v6H72V54M84 54h6v6H84V54M102 54h6v6H102V54M108 54h6v6H108V54M114 54h6v6H114V54M126 54h6v6H126V54M132 54h6v6H132V54M138 54h6v6H138V54M156 54h6v6H156V54M192 54h6v6H192V54M24 60h6v6H24V60M30 60h6v6H30V60M36 60h6v6H36V60M42 60h6v6H42V60M48 60h6v6H48V60M54 60h6v6H54V60M60 60h6v6H60V60M72 60h6v6H72V60M84 60h6v6H84V60M96 60h6v6H96V60M108 60h6v6H108V60M120 60h6v6H120V60M132 60h6v6H132V60M144 60h6v6H144V60M156 60h6v6H156V60M162 60h6v6H162V60M168 60h6v6H168V60M174 60h6v6H174V60M180 60h6v6H180V60M186 60h6v6H186V60M192 60h6v6H192V60M72 66h6v6H72V66M78 66h6v6H78V66M96 66h6v6H96V66M108 66h6v6H108V66M126 66h6v6H126V66M132 66h6v6H132V66M24 72h6v6H24V72M48 72h6v6H48V72M60 72h6v6H60V72M66 72h6v6H66V72M72 72h6v6H72V72M78 72h6v6H78V72M84 72h6v6H84V72M90 72h6v6H90V72M102 72h6v6H102V72M108 72h6v6H108V72M114 72h6v6H114V72M126 72h6v6H126V72M138 72h6v6H138V72M144 72h6v6H144V72M150 72h6v6H150V72M156 72h6v6H156V72M162 72h6v6H162V72M168 72h6v6H168V72M174 72h6v6H174V72M192 72h6v6H192V72M24 78h6v6H24V78M36 78h6v6H36V78M54 78h6v6H54V78M72 78h6v6H72V78M84 78h6v6H84V78M90 78h6v6H90V78M126 78h6v6H126V78M132 78h6v6H132V78M138 78h6v6H138V78M156 78h6v6H156V78M162 78h6v6H162V78M168 78h6v6H168V78M180 78h6v6H180V78M24 84h6v6H24V84M30 84h6v6H30V84M36 84h6v6H36V84M54 84h6v6H54V84M60 84h6v6H60V84M72 84h6v6H72V84M78 84h6v6H78V84M96 84h6v6H96V84M102 84h6v6H102V84M108 84h6v6H108V84M114 84h6v6H114V84M120 84h6v6H120V84M126 84h6v6H126V84M132 84h6v6H132V84M156 84h6v6H156V84M174 84h6v6H174V84M192 84h6v6H192V84M36 90h6v6H36V90M48 90h6v6H48V90M66 90h6v6H66V90M72 90h6v6H72V90M96 90h6v6H96V90M102 90h6v6H102V90M114 90h6v6H114V90M126 90h6v6H126V90M132 90h6v6H132V90M138 90h6v6H138V90M168 90h6v6H168V90M174 90h6v6H174V90M186 90h6v6H186V90M24 96h6v6H24V96M36 96h6v6H36V96M42 96h6v6H42V96M54 96h6v6H54V96M60 96h6v6H60V96M66 96h6v6H66V96M72 96h6v6H72V96M78 96h6v6H78V96M90 96h6v6H90V96M102 96h6v6H102V96M120 96h6v6H120V96M126 96h6v6H126V96M138 96h6v6H138V96M144 96h6v6H144V96M36 102h6v6H36V102M42 102h6v6H42V102M72 102h6v6H72V102M78 102h6v6H78V102M84 102h6v6H84V102M102 102h6v6H102V102M108 102h6v6H108V102M120 102h6v6H120V102M132 102h6v6H132V102M138 102h6v6H138V102M150 102h6v6H150V102M156 102h6v6H156V102M162 102h6v6H162V102M168 102h6v6H168V102M174 102h6v6H174V102M180 102h6v6H180V102M186 102h6v6H186V102M24 108h6v6H24V108M30 108h6v6H30V108M36 108h6v6H36V108M54 108h6v6H54V108M60 108h6v6H60V108M66 108h6v6H66V108M72 108h6v6H72V108M78 108h6v6H78V108M84 108h6v6H84V108M90 108h6v6H90V108M114 108h6v6H114V108M120 108h6v6H120V108M132 108h6v6H132V108M144 108h6v6H144V108M150 108h6v6H150V108M162 108h6v6H162V108M174 108h6v6H174V108M192 108h6v6H192V108M24 114h6v6H24V114M36 114h6v6H36V114M42 114h6v6H42V114M48 114h6v6H48V114M72 114h6v6H72V114M84 114h6v6H84V114M90 114h6v6H90V114M96 114h6v6H96V114M108 114h6v6H108V114M126 114h6v6H126V114M132 114h6v6H132V114M144 114h6v6H144V114M150 114h6v6H150V114M156 114h6v6H156V114M174 114h6v6H174V114M186 114h6v6H186V114M192 114h6v6H192V114M30 120h6v6H30V120M42 120h6v6H42V120M54 120h6v6H54V120M60 120h6v6H60V120M66 120h6v6H66V120M102 120h6v6H102V120M108 120h6v6H108V120M114 120h6v6H114V120M126 120h6v6H126V120M138 120h6v6H138V120M150 120h6v6H150V120M162 120h6v6H162V120M192 120h6v6H192V120M24 126h6v6H24V126M42 126h6v6H42V126M54 126h6v6H54V126M66 126h6v6H66V126M72 126h6v6H72V126M114 126h6v6H114V126M120 126h6v6H120V126M126 126h6v6H126V126M132 126h6v6H132V126M144 126h6v6H144V126M168 126h6v6H168V126M180 126h6v6H180V126M36 132h6v6H36V132M54 132h6v6H54V132M60 132h6v6H60V132M72 132h6v6H72V132M78 132h6v6H78V132M102 132h6v6H102V132M108 132h6v6H108V132M114 132h6v6H114V132M144 132h6v6H144V132M150 132h6v6H150V132M174 132h6v6H174V132M180 132h6v6H180V132M192 132h6v6H192V132M36 138h6v6H36V138M42 138h6v6H42V138M48 138h6v6H48V138M66 138h6v6H66V138M84 138h6v6H84V138M90 138h6v6H90V138M102 138h6v6H102V138M120 138h6v6H120V138M126 138h6v6H126V138M132 138h6v6H132V138M150 138h6v6H150V138M156 138h6v6H156V138M162 138h6v6H162V138M174 138h6v6H174V138M192 138h6v6H192V138M24 144h6v6H24V144M30 144h6v6H30V144M48 144h6v6H48V144M54 144h6v6H54V144M60 144h6v6H60V144M72 144h6v6H72V144M78 144h6v6H78V144M90 144h6v6H90V144M102 144h6v6H102V144M120 144h6v6H120V144M144 144h6v6H144V144M150 144h6v6H150V144M156 144h6v6H156V144M162 144h6v6H162V144M168 144h6v6H168V144M180 144h6v6H180V144M72 150h6v6H72V150M78 150h6v6H78V150M96 150h6v6H96V150M102 150h6v6H102V150M108 150h6v6H108V150M120 150h6v6H120V150M126 150h6v6H126V150M132 150h6v6H132V150M144 150h6v6H144V150M168 150h6v6H168V150M174 150h6v6H174V150M180 150h6v6H180V150M186 150h6v6H186V150M192 150h6v6H192V150M24 156h6v6H24V156M30 156h6v6H30V156M36 156h6v6H36V156M42 156h6v6H42V156M48 156h6v6H48V156M54 156h6v6H54V156M60 156h6v6H60V156M72 156h6v6H72V156M96 156h6v6H96V156M114 156h6v6H114V156M138 156h6v6H138V156M144 156h6v6H144V156M156 156h6v6H156V156M168 156h6v6H168V156M174 156h6v6H174V156M186 156h6v6H186V156M192 156h6v6H192V156M24 162h6v6H24V162M60 162h6v6H60V162M84 162h6v6H84V162M90 162h6v6H90V162M96 162h6v6H96V162M108 162h6v6H108V162M126 162h6v6H126V162M144 162h6v6H144V162M168 162h6v6H168V162M174 162h6v6H174V162M186 162h6v6H186V162M24 168h6v6H24V168M36 168h6v6H36V168M42 168h6v6H42V168M48 168h6v6H48V168M60 168h6v6H60V168M72 168h6v6H72V168M84 168h6v6H84V168M90 168h6v6H90V168M102 168h6v6H102V168M108 168h6v6H108V168M126 168h6v6H126V168M132 168h6v6H132V168M138 168h6v6H138V168M144 168h6v6H144V168M150 168h6v6H150V168M156 168h6v6H156V168M162 168h6v6H162V168M168 168h6v6H168V168M24 174h6v6H24V174M36 174h6v6H36V174M42 174h6v6H42V174M48 174h6v6H48V174M60 174h6v6H60V174M78 174h6v6H78V174M90 174h6v6H90V174M102 174h6v6H102V174M114 174h6v6H114V174M120 174h6v6H120V174M144 174h6v6H144V174M150 174h6v6H150V174M162 174h6v6H162V174M174 174h6v6H174V174M192 174h6v6H192V174M24 180h6v6H24V180M36 180h6v6H36V180M42 180h6v6H42V180M48 180h6v6H48V180M60 180h6v6H60V180M78 180h6v6H78V180M84 180h6v6H84V180M90 180h6v6H90V180M102 180h6v6H102V180M108 180h6v6H108V180M114 180h6v6H114V180M120 180h6v6H120V180M126 180h6v6H126V180M156 180h6v6H156V180M162 180h6v6H162V180M186 180h6v6H186V180M192 180h6v6H192V180M24 186h6v6H24V186M60 186h6v6H60V186M78 186h6v6H78V186M84 186h6v6H84V186M90 186h6v6H90V186M120 186h6v6H120V186M126 186h6v6H126V186M132 186h6v6H132V186M138 186h6v6H138V186M156 186h6v6H156V186M162 186h6v6H162V186M174 186h6v6H174V186M186 186h6v6H186V186M192 186h6v6H192V186M24 192h6v6H24V192M30 192h6v6H30V192M36 192h6v6H36V192M42 192h6v6H42V192M48 192h6v6H48V192M54 192h6v6H54V192M60 192h6v6H60V192M72 192h6v6H72V192M78 192h6v6H78V192M90 192h6v6H90V192M96 192h6v6H96V192M114 192h6v6H114V192M120 192h6v6H120V192M126 192h6v6H126V192M144 192h6v6H144V192M150 192h6v6H150V192M156 192h6v6H156V192M162 192h6v6H162V192M168 192h6v6H168V192M180 192h6v6H180V192M186 192h6v6H186V192"/></svg>