<?xml version="1.0" standalone="yes"?><svg xmlns="http://www.w3.org/2000/svg" version="1.1" width="222" height="222" shape-rendering="crispEdges"><rect x="0" y="0" width="222" height="222" fill="#fff"/><path fill="#000" d="M24 24h6v6H24V24M30 24h6v6H30V24M36 24h6v6H36V24M42 24h6v6H42V24M48 24h6v6H48V24M54 24h6v6H54V24M60 24h6v6H60V24M72 24h6v6H72V24M78 24h6v6H78V24M96 24h6v6H96V24M102 24h6v6H102V24M108 24h6v6H108V24M114 24h6v6H114V24M132 24h6v6H132V24M144 24h6v6H144V24M156 24h6v6H156V24M162 24h6v6H162V24M168 24h6v6H168V24M174 24h6v6H174V24M180 24h6v6H180V24M186 24h6v6H186V24M192 24h6v6H192V24M24 30h6v6H24V30M60 30h6v6H60V30M72 30h6v6H72V30M78 30h6v6H78V30M90 30h6v6H90V30M96 30h6v6H96V30M102 30h6v6H102V30M120 30h6v6H120V30M156 30h6v6H156V30M192 30h6v6H192V30M24 36h6v6H24V36M36 36h6v6H36V36M42 36h6v6H42V36M48 36h6v6H48V36M60 36h6v6H60V36M84 36h6v6H84V36M90 36h6v6H90V36M120 36h6v6H120V36M132 36h6v6H132V36M156 36h6v6H156V36M168 36h6v6H168V36M174 36h6v6H174V36M180 36h6v6H180V36M192 36h6v6H192V36M24 42h6v6H24V42M36 42h6v6H36V42M42 42h6v6H42V42M48 42h6v6H48V42M60 42h6v6H60V42M72 42h6v6H72V42M84 42h6v6H84V42M90 42h6v6H90V42M96 42h6v6H96V42M108 42h6v6H108V42M114 42h6v6H114V42M126 42h6v6H126V42M144 42h6v6H144V42M156 42h6v6H156V42M168 42h6v6H168V42M174 42h6v6H174V42M180 42h6v6H180V42M192 42h6v6H192V42M24 48h6v6H24V48M36 48h6v6H36V48M42 48h6v6H42V48M48 48h6v6H48V48M60 48h6v6H60V48M90 48h6v6H90V48M108 48h6v6H108V48M120 48h6v6H120V48M126 48h6v6H126V48M156 48h6v6H156V48M168 48h6v6H168V48M174 48h6v6H174V48M180 48h6v6H180V48M192 48h6v6H192V48M24 54h6v6H24V54M60 54h6v6H60V54M84 54h6v6H84V54M90 54h6v6H90V54M102 54h6v6H102V54M114 54h6v6H114V54M120 54h6v6H120V54M126 54h6v6H126V54M132 54h6v6H132V54M138 54h6v6H138V54M144 54h6v6H144V54M156 54h6v6H156V54M192 54h6v6H192V54M24 60h6v6H24V60M30 60h6v6H30V60M36 60h6v6H36V60M42 60h6v6H42V60M48 60h6v6H48V60M54 60h6v6H54V60M60 60h6v6H60V60M72 60h6v6H72V60M84 60h6v6H84V60M96 60h6v6H96V60M108 60h6v6H108V60M120 60h6v6H120V60M132 60h6v6H132V60M144 60h6v6H144V60M156 60h6v6H156V60M162 60h6v6H162V60M168 60h6v6H168V60M174 60h6v6H174V60M180 60h6v6H180V60M186 60h6v6H186V60M192 60h6v6H192V60M72 66h6v6H72V66M78 66h6v6H78V66M90 66h6v6H90V66M114 66h6v6H114V66M120 66h6v6H120V66M126 66h6v6H126V66M24 72h6v6H24V72M36 72h6v6H36V72M42 72h6v6H42V72M54 72h6v6H54V72M60 72h6v6H60V72M66 72h6v6H66V72M102 72h6v6H102V72M114 72h6v6H114V72M120 72h6v6H120V72M126 72h6v6H126V72M132 72h6v6H132V72M138 72h6v6H138V72M156 72h6v6H156V72M174 72h6v6H174V72M186 72h6v6H186V72M192 72h6v6H192V72M24 78h6v6H24V78M30 78h6v6H30V78M36 78h6v6H36V78M48 78h6v6H48V78M54 78h6v6H54V78M66 78h6v6H66V78M72 78h6v6H72V78M90 78h6v6H90V78M96 78h6v6H96V78M102 78h6v6H102V78M108 78h6v6H108V78M114 78h6v6H114V78M138 78h6v6H138V78M150 78h6v6H150V78M156 78h6v6H156V78M162 78h6v6H162V78M168 78h6v6H168V78M180 78h6v6H180V78M186 78h6v6H186V78M42 84h6v6H42V84M54 84h6v6H54V84M60 84h6v6H60V84M66 84h6v6H66V84M72 84h6v6H72V84M78 84h6v6H78V84M102 84h6v6H102V84M150 84h6v6H150V84M168 84h6v6H168V84M174 84h6v6H174V84M192 84h6v6H192V84M30 90h6v6H30V90M42 90h6v6H42V90M66 90h6v6H66V90M72 90h6v6H72V90M84 90h6v6H84V90M90 90h6v6H90V90M120 90h6v6H120V90M132 90h6v6H132V90M150 90h6v6H150V90M162 90h6v6H162V90M186 90h6v6H186V90M192 90h6v6H192V90M24 96h6v6H24V96M36 96h6v6H36V96M48 96h6v6H48V96M60 96h6v6H60V96M66 96h6v6H66V96M108 96h6v6H108V96M114 96h6v6H114V96M120 96h6v6H120V96M132 96h6v6H132V96M162 96h6v6H162V96M168 96h6v6H168V96M36 102h6v6H36V102M48 102h6v6H48V102M72 102h6v6H72V102M78 102h6v6H78V102M90 102h6v6H90V102M96 102h6v6H96V102M108 102h6v6H108V102M126 102h6v6H126V102M132 102h6v6H132V102M138 102h6v6H138V102M144 102h6v6H144V102M150 102h6v6H150V102M186 102h6v6H186V102M36 108h6v6H36V108M60 108h6v6H60V108M66 108h6v6H66V108M72 108h6v6H72V108M96 108h6v6H96V108M102 108h6v6H102V108M126 108h6v6H126V108M132 108h6v6H132V108M138 108h6v6H138V108M150 108h6v6H150V108M156 108h6v6H156V108M162 108h6v6H162V108M192 108h6v6H192V108M24 114h6v6H24V114M30 114h6v6H30V114M42 114h6v6H42V114M54 114h6v6H54V114M66 114h6v6H66V114M90 114h6v6H90V114M96 114h6v6H96V114M108 114h6v6H108V114M132 114h6v6H132V114M138 114h6v6H138V114M144 114h6v6H144V114M162 114h6v6H162V114M168 114h6v6H168V114M174 114h6v6H174V114M186 114h6v6H186V114M30 120h6v6H30V120M48 120h6v6H48V120M60 120h6v6H60V120M66 120h6v6H66V120M78 120h6v6H78V120M108 120h6v6H108V120M120 120h6v6H120V120M126 120h6v6H126V120M132 120h6v6H132V120M144 120h6v6H144V120M150 120h6v6H150V120M180 120h6v6H180V120M186 120h6v6H186V120M54 126h6v6H54V126M66 126h6v6H66V126M90 126h6v6H90V126M108 126h6v6H108V126M132 126h6v6H132V126M144 126h6v6H144V126M150 126h6v6H150V126M174 126h6v6H174V126M186 126h6v6H186V126M192 126h6v6H192V126M24 132h6v6H24V132M36 132h6v6H36V132M42 132h6v6H42V132M54 132h6v6H54V132M60 132h6v6H60V132M72 132h6v6H72V132M78 132h6v6H78V132M84 132h6v6H84V132M90 132h6v6H90V132M96 132h6v6H96V132M102 132h6v6H102V132M108 132h6v6H108V132M114 132h6v6H114V132M120 132h6v6H120V132M168 132h6v6H168V132M174 132h6v6H174V132M186 132h6v6H186V132M36 138h6v6H36V138M42 138h6v6H42V138M48 138h6v6H48V138M54 138h6v6H54V138M72 138h6v6H72V138M78 138h6v6H78V138M96 138h6v6H96V138M102 138h6v6H102V138M108 138h6v6H108V138M120 138h6v6H120V138M126 138h6v6H126V138M132 138h6v6H132V138M150 138h6v6H150V138M156 138h6v6H156V138M30 144h6v6H30V144M36 144h6v6H36V144M54 144h6v6H54V144M60 144h6v6H60V144M78 144h6v6H78V144M90 144h6v6H90V144M102 144h6v6H102V144M108 144h6v6H108V144M120 144h6v6H120V144M132 144h6v6H132V144M138 144h6v6H138V144M144 144h6v6H144V144M150 144h6v6H150V144M156 144h6v6H156V144M162 144h6v6H162V144M168 144h6v6H168V144M180 144h6v6H180V144M186 144h6v6H186V144M192 144h6v6H192V144M72 150h6v6H72V150M78 150h6v6H78V150M90 150h6v6H90V150M114 150h6v6H114V150M120 150h6v6H120V150M132 150h6v6H132V150M144 150h6v6H144V150M168 150h6v6H168V150M174 150h6v6H174V150M186 150h6v6H186V150M24 156h6v6H24V156M30 156h6v6H30V156M36 156h6v6H36V156M42 156h6v6H42V156M48 156h6v6H48V156M54 156h6v6H54V156M60 156h6v6H60V156M72 156h6v6H72V156M96 156h6v6H96V156M108 156h6v6H108V156M120 156h6v6H120V156M132 156h6v6H132V156M138 156h6v6H138V156M144 156h6v6H144V156M156 156h6v6H156V156M168 156h6v6H168V156M174 156h6v6H174V156M192 156h6v6H192V156M24 162h6v6H24V162M60 162h6v6H60V162M72 162h6v6H72V162M78 162h6v6H78V162M90 162h6v6H90V162M96 162h6v6H96V162M102 162h6v6H102V162M108 162h6v6H108V162M126 162h6v6H126V162M132 162h6v6H132V162M138 162h6v6H138V162M144 162h6v6H144V162M168 162h6v6H168V162M174 162h6v6H174V162M180 162h6v6H180V162M186 162h6v6H186V162M24 168h6v6H24V168M36 168h6v6H36V168M42 168h6v6H42V168M48 168h6v6H48V168M60 168h6v6H60V168M90 168h6v6H90V168M96 168h6v6H96V168M114 168h6v6H114V168M120 168h6v6H120V168M126 168h6v6H126V168M132 168h6v6H132V168M144 168h6v6H144V168M150 168h6v6H150V168M156 168h6v6H156V168M162 168h6v6H162V168M168 168h6v6H168V168M174 168h6v6H174V168M186 168h6v6H186V168M24 174h6v6H24V174M36 174h6v6H36V174M42 174h6v6H42V174M48 174h6v6H48V174M60 174h6v6H60V174M72 174h6v6H72V174M78 174h6v6H78V174M84 174h6v6H84V174M96 174h6v6H96V174M102 174h6v6H102V174M126 174h6v6H126V174M162 174h6v6H162V174M168 174h6v6H168V174M180 174h6v6H180V174M24 180h6v6H24V180M36 180h6v6H36V180M42 180h6v6H42V180M48 180h6v6H48V180M60 180h6v6H60V180M72 180h6v6H72V180M78 180h6v6H78V180M90 180h6v6H90V180M96 180h6v6H96V180M102 180h6v6H102V180M120 180h6v6H120V180M132 180h6v6H132V180M150 180h6v6H150V180M162 180h6v6H162V180M180 180h6v6H180V180M192 180h6v6H192V180M24 186h6v6H24V186M60 186h6v6H60V186M78 186h6v6H78V186M96 186h6v6H96V186M108 186h6v6H108V186M120 186h6v6H120V186M126 186h6v6H126V186M138 186h6v6H138V186M180 186h6v6H180V186M186 186h6v6H186V186M192 186h6v6H192V186M24 192h6v6H24V192M30 192h6v6H30V192M36 192h6v6H36V192M42 192h6v6H42V192M48 192h6v6H48V192M54 192h6v6H54V192M60 192h6v6H60V192M72 192h6v6H72V192M78 192h6v6H78V192M84 192h6v6H84V192M96 192h6v6H96V192M102 192h6v6H102V192M120 192h6v6H120V192M126 192h6v6H126V192M138 192h6v6H138V192M144 192h6v6H144V192M174 192h6v6H174V192M180 192h6v6H180V192"/></svg>