<?xml version="1.0" standalone="yes"?><svg xmlns="http://www.w3.org/2000/svg" version="1.1" width="222" height="222" shape-rendering="crispEdges"><rect x="0" y="0" width="222" height="222" fill="#fff"/><path fill="#000" d="M24 24h6v6H24V24M30 24h6v6H30V24M36 24h6v6H36V24M42 24h6v6H42V24M48 24h6v6H48V24M54 24h6v6H54V24M60 24h6v6H60V24M72 24h6v6H72V24M78 24h6v6H78V24M96 24h6v6H96V24M102 24h6v6H102V24M108 24h6v6H108V24M114 24h6v6H114V24M132 24h6v6H132V24M156 24h6v6H156V24M162 24h6v6H162V24M168 24h6v6H168V24M174 24h6v6H174V24M180 24h6v6H180V24M186 24h6v6H186V24M192 24h6v6H192V24M24 30h6v6H24V30M60 30h6v6H60V30M72 30h6v6H72V30M84 30h6v6H84V30M90 30h6v6H90V30M96 30h6v6H96V30M102 30h6v6H102V30M120 30h6v6H120V30M126 30h6v6H126V30M138 30h6v6H138V30M144 30h6v6H144V30M156 30h6v6H156V30M192 30h6v6H192V30M24 36h6v6H24V36M36 36h6v6H36V36M42 36h6v6H42V36M48 36h6v6H48V36M60 36h6v6H60V36M78 36h6v6H78V36M90 36h6v6H90V36M120 36h6v6H120V36M132 36h6v6H132V36M138 36h6v6H138V36M156 36h6v6H156V36M168 36h6v6H168V36M174 36h6v6H174V36M180 36h6v6H180V36M192 36h6v6H192V36M24 42h6v6H24V42M36 42h6v6H36V42M42 42h6v6H42V42M48 42h6v6H48V42M60 42h6v6H60V42M72 42h6v6H72V42M84 42h6v6H84V42M96 42h6v6H96V42M108 42h6v6H108V42M114 42h6v6H114V42M138 42h6v6H138V42M144 42h6v6H144V42M156 42h6v6H156V42M168 42h6v6H168V42M174 42h6v6H174V42M180 42h6v6H180V42M192 42h6v6H192V42M24 48h6v6H24V48M36 48h6v6H36V48M42 48h6v6H42V48M48 48h6v6H48V48M60 48h6v6H60V48M84 48h6v6H84V48M108 48h6v6H108V48M120 48h6v6H120V48M138 48h6v6H138V48M156 48h6v6H156V48M168 48h6v6H168V48M174 48h6v6H174V48M180 48h6v6H180V48M192 48h6v6H192V48M24 54h6v6H24V54M60 54h6v6H60V54M78 54h6v6H78V54M84 54h6v6H84V54M96 54h6v6H96V54M102 54h6v6H102V54M114 54h6v6H114V54M120 54h6v6H120V54M132 54h6v6H132V54M144 54h6v6H144V54M156 54h6v6H156V54M192 54h6v6H192V54M24 60h6v6H24V60M30 60h6v6H30V60M36 60h6v6H36V60M42 60h6v6H42V60M48 60h6v6H48V60M54 60h6v6H54V60M60 60h6v6H60V60M72 60h6v6H72V60M84 60h6v6H84V60M96 60h6v6H96V60M108 60h6v6H108V60M120 60h6v6H120V60M132 60h6v6H132V60M144 60h6v6H144V60M156 60h6v6H156V60M162 60h6v6H162V60M168 60h6v6H168V60M174 60h6v6H174V60M180 60h6v6H180V60M186 60h6v6H186V60M192 60h6v6H192V60M72 66h6v6H72V66M78 66h6v6H78V66M84 66h6v6H84V66M114 66h6v6H114V66M120 66h6v6H120V66M132 66h6v6H132V66M144 66h6v6H144V66M24 72h6v6H24V72M36 72h6v6H36V72M42 72h6v6H42V72M54 72h6v6H54V72M60 72h6v6H60V72M66 72h6v6H66V72M78 72h6v6H78V72M102 72h6v6H102V72M114 72h6v6H114V72M120 72h6v6H120V72M132 72h6v6H132V72M138 72h6v6H138V72M144 72h6v6H144V72M156 72h6v6H156V72M174 72h6v6H174V72M186 72h6v6H186V72M192 72h6v6H192V72M36 78h6v6H36V78M42 78h6v6H42V78M48 78h6v6H48V78M54 78h6v6H54V78M66 78h6v6H66V78M72 78h6v6H72V78M78 78h6v6H78V78M90 78h6v6H90V78M102 78h6v6H102V78M108 78h6v6H108V78M114 78h6v6H114V78M126 78h6v6H126V78M132 78h6v6H132V78M138 78h6v6H138V78M150 78h6v6H150V78M156 78h6v6H156V78M168 78h6v6H168V78M192 78h6v6H192V78M30 84h6v6H30V84M42 84h6v6H42V84M48 84h6v6H48V84M54 84h6v6H54V84M60 84h6v6H60V84M78 84h6v6H78V84M102 84h6v6H102V84M126 84h6v6H126V84M144 84h6v6H144V84M168 84h6v6H168V84M174 84h6v6H174V84M186 84h6v6H186V84M24 90h6v6H24V90M30 90h6v6H30V90M36 90h6v6H36V90M42 90h6v6H42V90M54 90h6v6H54V90M72 90h6v6H72V90M78 90h6v6H78V90M84 90h6v6H84V90M90 90h6v6H90V90M120 90h6v6H120V90M126 90h6v6H126V90M156 90h6v6H156V90M162 90h6v6H162V90M168 90h6v6H168V90M24 96h6v6H24V96M36 96h6v6H36V96M42 96h6v6H42V96M54 96h6v6H54V96M60 96h6v6H60V96M66 96h6v6H66V96M78 96h6v6H78V96M84 96h6v6H84V96M90 96h6v6H90V96M108 96h6v6H108V96M114 96h6v6H114V96M132 96h6v6H132V96M138 96h6v6H138V96M180 96h6v6H180V96M192 96h6v6H192V96M24 102h6v6H24V102M48 102h6v6H48V102M54 102h6v6H54V102M72 102h6v6H72V102M78 102h6v6H78V102M108 102h6v6H108V102M120 102h6v6H120V102M126 102h6v6H126V102M144 102h6v6H144V102M156 102h6v6H156V102M24 108h6v6H24V108M30 108h6v6H30V108M36 108h6v6H36V108M42 108h6v6H42V108M48 108h6v6H48V108M60 108h6v6H60V108M72 108h6v6H72V108M84 108h6v6H84V108M90 108h6v6H90V108M96 108h6v6H96V108M102 108h6v6H102V108M114 108h6v6H114V108M120 108h6v6H120V108M126 108h6v6H126V108M132 108h6v6H132V108M144 108h6v6H144V108M150 108h6v6H150V108M156 108h6v6H156V108M180 108h6v6H180V108M186 108h6v6H186V108M192 108h6v6H192V108M24 114h6v6H24V114M30 114h6v6H30V114M48 114h6v6H48V114M66 114h6v6H66V114M84 114h6v6H84V114M90 114h6v6H90V114M108 114h6v6H108V114M114 114h6v6H114V114M126 114h6v6H126V114M132 114h6v6H132V114M144 114h6v6H144V114M150 114h6v6H150V114M168 114h6v6H168V114M174 114h6v6H174V114M192 114h6v6H192V114M30 120h6v6H30V120M42 120h6v6H42V120M54 120h6v6H54V120M60 120h6v6H60V120M66 120h6v6H66V120M72 120h6v6H72V120M84 120h6v6H84V120M90 120h6v6H90V120M96 120h6v6H96V120M108 120h6v6H108V120M114 120h6v6H114V120M132 120h6v6H132V120M138 120h6v6H138V120M144 120h6v6H144V120M150 120h6v6H150V120M156 120h6v6H156V120M180 120h6v6H180V120M192 120h6v6H192V120M42 126h6v6H42V126M48 126h6v6H48V126M66 126h6v6H66V126M78 126h6v6H78V126M108 126h6v6H108V126M114 126h6v6H114V126M120 126h6v6H120V126M126 126h6v6H126V126M144 126h6v6H144V126M150 126h6v6H150V126M156 126h6v6H156V126M162 126h6v6H162V126M180 126h6v6H180V126M192 126h6v6H192V126M24 132h6v6H24V132M36 132h6v6H36V132M48 132h6v6H48V132M60 132h6v6H60V132M72 132h6v6H72V132M78 132h6v6H78V132M102 132h6v6H102V132M108 132h6v6H108V132M114 132h6v6H114V132M120 132h6v6H120V132M126 132h6v6H126V132M132 132h6v6H132V132M150 132h6v6H150V132M156 132h6v6H156V132M162 132h6v6H162V132M180 132h6v6H180V132M36 138h6v6H36V138M42 138h6v6H42V138M66 138h6v6H66V138M72 138h6v6H72V138M78 138h6v6H78V138M84 138h6v6H84V138M102 138h6v6H102V138M108 138h6v6H108V138M120 138h6v6H120V138M138 138h6v6H138V138M144 138h6v6H144V138M150 138h6v6H150V138M162 138h6v6H162V138M174 138h6v6H174V138M180 138h6v6H180V138M186 138h6v6H186V138M30 144h6v6H30V144M36 144h6v6H36V144M42 144h6v6H42V144M48 144h6v6H48V144M60 144h6v6H60V144M66 144h6v6H66V144M72 144h6v6H72V144M78 144h6v6H78V144M96 144h6v6H96V144M102 144h6v6H102V144M108 144h6v6H108V144M114 144h6v6H114V144M120 144h6v6H120V144M126 144h6v6H126V144M132 144h6v6H132V144M144 144h6v6H144V144M150 144h6v6H150V144M156 144h6v6H156V144M162 144h6v6H162V144M168 144h6v6H168V144M180 144h6v6H180V144M192 144h6v6H192V144M72 150h6v6H72V150M120 150h6v6H120V150M132 150h6v6H132V150M144 150h6v6H144V150M168 150h6v6H168V150M174 150h6v6H174V150M192 150h6v6H192V150M24 156h6v6H24V156M30 156h6v6H30V156M36 156h6v6H36V156M42 156h6v6H42V156M48 156h6v6H48V156M54 156h6v6H54V156M60 156h6v6H60V156M72 156h6v6H72V156M78 156h6v6H78V156M96 156h6v6H96V156M108 156h6v6H108V156M132 156h6v6H132V156M138 156h6v6H138V156M144 156h6v6H144V156M156 156h6v6H156V156M168 156h6v6H168V156M180 156h6v6H180V156M24 162h6v6H24V162M60 162h6v6H60V162M72 162h6v6H72V162M78 162h6v6H78V162M84 162h6v6H84V162M90 162h6v6H90V162M102 162h6v6H102V162M108 162h6v6H108V162M126 162h6v6H126V162M144 162h6v6H144V162M168 162h6v6H168V162M192 162h6v6H192V162M24 168h6v6H24V168M36 168h6v6H36V168M42 168h6v6H42V168M48 168h6v6H48V168M60 168h6v6H60V168M84 168h6v6H84V168M90 168h6v6H90V168M144 168h6v6H144V168M150 168h6v6H150V168M156 168h6v6H156V168M162 168h6v6H162V168M168 168h6v6H168V168M180 168h6v6H180V168M192 168h6v6H192V168M24 174h6v6H24V174M36 174h6v6H36V174M42 174h6v6H42V174M48 174h6v6H48V174M60 174h6v6H60V174M72 174h6v6H72V174M78 174h6v6H78V174M84 174h6v6H84V174M96 174h6v6H96V174M102 174h6v6H102V174M114 174h6v6H114V174M126 174h6v6H126V174M150 174h6v6H150V174M162 174h6v6H162V174M180 174h6v6H180V174M24 180h6v6H24V180M36 180h6v6H36V180M42 180h6v6H42V180M48 180h6v6H48V180M60 180h6v6H60V180M72 180h6v6H72V180M78 180h6v6H78V180M96 180h6v6H96V180M114 180h6v6H114V180M120 180h6v6H120V180M126 180h6v6H126V180M132 180h6v6H132V180M144 180h6v6H144V180M156 180h6v6H156V180M162 180h6v6H162V180M192 180h6v6H192V180M24 186h6v6H24V186M60 186h6v6H60V186M78 186h6v6H78V186M90 186h6v6H90V186M96 186h6v6H96V186M108 186h6v6H108V186M126 186h6v6H126V186M132 186h6v6H132V186M144 186h6v6H144V186M150 186h6v6H150V186M156 186h6v6H156V186M162 186h6v6H162V186M186 186h6v6H186V186M24 192h6v6H24V192M30 192h6v6H30V192M36 192h6v6H36V192M42 192h6v6H42V192M48 192h6v6H48V192M54 192h6v6H54V192M60 192h6v6H60V192M72 192h6v6H72V192M90 192h6v6H90V192M108 192h6v6H108V192M114 192h6v6H114V192M126 192h6v6H126V192M132 192h6v6H132V192M138 192h6v6H138V192M144 192h6v6H144V192M156 192h6v6H156V192M174 192h6v6H174V192M186 192h6v6H186V192"/></svg>